<?xml version="1.0" encoding="UTF-8"?>
<svg xmlns="http://www.w3.org/2000/svg" xmlns:xlink="http://www.w3.org/1999/xlink" width="256pt" height="256pt" viewBox="0 0 256 256" version="1.1">
<g id="surface583028">
<path style=" stroke:none;fill-rule:nonzero;fill:rgb(40%,40%,40%);fill-opacity:1;" d="M 252.050781 128 C 252.050781 59.5 196.5 3.949219 128 3.949219 C 59.5 3.949219 3.949219 59.5 3.949219 128 C 3.949219 196.5 59.5 252.050781 128 252.050781 C 196.5 252.050781 252.050781 196.5 252.050781 128 Z M 252.050781 128 "/>
<path style=" stroke:none;fill-rule:nonzero;fill:rgb(100%,100%,100%);fill-opacity:1;" d="M 161.601562 183.75 C 160.898438 182.75 159.601562 182.351562 158.449219 182.898438 C 146.148438 188.699219 132.199219 194.851562 129.449219 195.398438 C 129.398438 195.351562 129.25 195.25 129.148438 195.050781 C 128.800781 194.550781 128.601562 193.898438 128.601562 193.050781 C 128.601562 186.101562 133.851562 164.949219 144.199219 130.199219 C 152.949219 101 153.949219 94.949219 153.949219 92.949219 C 153.949219 89.851562 152.75 87.25 150.5 85.398438 C 148.351562 83.648438 145.398438 82.75 141.648438 82.75 C 135.398438 82.75 128.199219 85.101562 119.601562 90 C 111.25 94.699219 101.898438 102.699219 91.898438 113.75 C 91.101562 114.601562 91.050781 115.898438 91.699219 116.851562 C 92.351562 117.800781 93.601562 118.148438 94.699219 117.75 C 98.199219 116.300781 115.898438 109.050781 118.5 107.449219 C 120.601562 106.148438 122.449219 105.449219 123.949219 105.449219 C 124 105.449219 124.050781 105.449219 124.101562 105.449219 C 124.101562 105.550781 124.148438 105.699219 124.148438 105.898438 C 124.148438 107.398438 123.851562 109.25 123.199219 111.25 C 108.148438 160.050781 100.800781 190 100.800781 202.75 C 100.800781 207.25 102.050781 210.851562 104.5 213.5 C 107 216.199219 110.398438 217.550781 114.550781 217.550781 C 119 217.550781 124.398438 215.699219 131.101562 211.851562 C 137.550781 208.148438 147.449219 200 161.300781 187 C 162.148438 186.101562 162.300781 184.75 161.601562 183.75 Z M 161.101562 42.300781 C 158.648438 39.800781 155.5 38.5 151.75 38.5 C 147.101562 38.5 143 40.351562 139.648438 44 C 136.351562 47.601562 134.699219 51.949219 134.699219 57.050781 C 134.699219 61.050781 135.949219 64.398438 138.351562 66.949219 C 140.800781 69.550781 143.898438 70.851562 147.601562 70.851562 C 152.101562 70.851562 156.101562 68.898438 159.601562 65.050781 C 163.050781 61.25 164.800781 56.851562 164.800781 51.851562 C 164.800781 48 163.550781 44.800781 161.101562 42.300781 Z M 161.101562 42.300781 "/>
</g>
</svg>
